<svg width="761" height="204" viewBox="0 0 761 204" fill="none" xmlns="http://www.w3.org/2000/svg">
<path d="M330.908 200.632L269.052 201.113L306.193 5.49334L368.055 5.01241L330.908 200.632ZM215.497 6.19842L157.571 140.999L150.369 112.124L150.375 112.135L128.879 24.4591C128.879 24.4591 126.225 6.89243 99.3999 7.10098L1.91058 7.85887L0.792345 11.175C0.792345 11.175 30.6444 16.0425 65.6686 32.997L120.728 202.272L185.176 201.771L282.068 5.68088L215.497 6.19842V6.19842ZM703.541 197.736L760.338 197.294L709.299 2.3543L659.576 2.74086C636.614 2.91937 631.135 17.5188 631.135 17.5188L540.288 199.005L604.768 198.503L617.437 169.39L696.07 168.779L703.541 197.736ZM634.939 129.174L666.872 55.8276L685.724 128.779L634.939 129.174ZM543.971 50.6175L552.472 8.60516C552.472 8.60516 525.167 0.300702 496.772 0.521451C466.076 0.760085 393.267 12.3561 393.684 65.9874C394.077 116.447 479.636 116.409 479.842 142.914C480.048 169.419 403.271 165.266 377.816 148.749L368.961 192.677C368.961 192.677 396.666 203.491 438.865 203.163C481.077 202.835 544.616 184.372 544.236 135.469C543.841 84.6855 457.481 80.6283 457.31 58.5488C457.144 36.464 517.408 38.8327 543.971 50.6175V50.6175Z" fill="#2566AF"/>
</svg>
